<svg width="100" height="100" viewBox="0 0 100 100" fill="none" xmlns="http://www.w3.org/2000/svg">
  <rect width="100" height="100" rx="20" fill="#E11D48"/>
  <path d="M30 30C30 26.6863 32.6863 24 36 24H64C67.3137 24 70 26.6863 70 30V70C70 73.3137 67.3137 76 64 76H36C32.6863 76 30 73.3137 30 70V30Z" fill="white"/>
  <path d="M50 38C44.4772 38 40 42.4772 40 48C40 53.5228 44.4772 58 50 58C55.5228 58 60 53.5228 60 48C60 42.4772 55.5228 38 50 38ZM50 54C46.6863 54 44 51.3137 44 48C44 44.6863 46.6863 42 50 42C53.3137 42 56 44.6863 56 48C56 51.3137 53.3137 54 50 54Z" fill="#E11D48"/>
  <path d="M33 65C33 63.3431 34.3431 62 36 62H64C65.6569 62 67 63.3431 67 65V70C67 72.7614 64.7614 75 62 75H38C35.2386 75 33 72.7614 33 70V65Z" fill="#E11D48"/>
</svg>